<svg width="110" height="111" viewBox="0 0 110 111" fill="none" xmlns="http://www.w3.org/2000/svg">
<path d="M88.6699 30.7527H98.0408V73.4195H88.6699V30.7527Z" fill="url(#paint0_linear_1301_1971)"/>
<path d="M50.6129 57.5246C50.6129 63.4463 47.1656 68.527 41.89 71.5231C38.6647 73.3622 34.7536 74.4199 30.5339 74.4199C19.073 74.4199 10.2852 66.7222 10.2852 56.6041H20.5783C20.5783 61.2877 24.9244 64.7982 30.449 64.7982C35.9737 64.7982 40.3198 61.452 40.3198 56.2648C40.3198 51.4116 36.2228 47.6466 30.2794 47.6466H22.921V39.532H30.2794C35.3871 39.532 39.2297 36.3554 39.2297 31.8343C39.2297 29.9103 38.5167 28.2823 37.3364 27.0333C40.6573 26.7789 44.6966 27.1452 49.317 28.8202C49.4018 29.423 49.4379 30.042 49.4379 30.6647C49.4379 36.0991 46.2614 40.873 41.576 43.3799C47.0104 46.0602 50.6111 51.4946 50.6111 57.5228L50.6129 57.5246Z" fill="url(#paint1_linear_1301_1971)"/>
<path d="M85.9924 64.1284V73.6454H67.0865C59.6162 73.6454 53.5573 67.5865 53.5573 60.1162V36.2993C53.5573 33.8464 52.8119 31.5669 51.5431 29.67C50.9926 28.856 50.3483 28.1106 49.6191 27.4554C49.3971 27.2497 49.1643 27.0584 48.926 26.8743C48.9314 26.8905 48.9314 26.9014 48.9369 26.9158C42.4556 22.178 29.0383 21.873 24.0731 26.5404C24.0407 26.562 24.0154 26.5927 23.9829 26.6198C22.5336 27.9103 21.6618 29.6646 21.6618 31.6734H11.459C11.459 25.0387 15.2275 19.1856 21.3442 16.6642C26.8959 14.3811 36.4166 14.5922 40.1183 14.7763H40.1237C41.0857 14.8232 41.6525 14.872 41.6525 14.872C53.3407 15.7708 63.0743 24.4828 63.0743 36.2993V60.1162C63.0743 62.3307 64.872 64.1284 67.0865 64.1284H85.9924Z" fill="url(#paint2_linear_1301_1971)"/>
<path d="M93.3524 27.3959C96.8661 27.3959 99.7145 24.5475 99.7145 21.0338C99.7145 17.5201 96.8661 14.6716 93.3524 14.6716C89.8387 14.6716 86.9902 17.5201 86.9902 21.0338C86.9902 24.5475 89.8387 27.3959 93.3524 27.3959Z" fill="url(#paint3_linear_1301_1971)"/>
<path d="M51.5431 29.6696C50.9926 28.8556 50.3483 28.1102 49.6191 27.4551C50.4024 28.1157 51.0522 28.8556 51.5431 29.6696Z" fill="url(#paint4_linear_1301_1971)"/>
<path d="M53.5592 36.2973C53.5592 33.8445 52.8138 31.565 51.545 29.668C50.9945 28.8541 50.3502 28.1087 49.621 27.4535C49.399 27.2477 49.1662 27.0564 48.928 26.8723C48.9334 26.8886 48.9334 26.8994 48.9388 26.9138C42.4576 22.1761 29.0403 21.8711 24.0751 26.5384C24.0426 26.5601 24.0173 26.5908 23.9848 26.6178C22.5355 27.9083 21.6638 29.6626 21.6638 31.6714H11.4609C11.4609 25.0368 15.2295 19.1836 21.3461 16.6622C26.8979 14.3791 36.4185 14.5903 40.1203 14.7744H40.1257C40.4596 14.8538 54.061 18.1152 53.5592 36.2973Z" fill="url(#paint5_linear_1301_1971)"/>
<path d="M41.89 71.523C38.6647 73.3621 34.7536 74.4198 30.5339 74.4198C19.073 74.4198 10.2852 66.722 10.2852 56.604H20.5783C20.5783 56.604 19.9068 71.0519 41.89 71.523Z" fill="url(#paint6_linear_1301_1971)"/>
<path d="M88.6699 30.7529L98.0389 73.4198H88.6699V30.7529Z" fill="url(#paint7_linear_1301_1971)"/>
<path d="M21.5208 90.0863H23.8401V94.7844C22.5424 96.212 20.6888 96.9268 18.2775 96.9268C16.247 96.9268 14.5469 96.259 13.177 94.9216C11.8071 93.586 11.123 91.8948 11.123 89.8517C11.123 87.8086 11.8215 86.1048 13.2167 84.7422C14.6118 83.3795 16.2994 82.6973 18.2775 82.6973C20.2556 82.6973 21.8999 83.2748 23.2102 84.4263L21.972 86.1951C21.4342 85.7366 20.8945 85.419 20.3513 85.2421C19.808 85.0652 19.1745 84.9768 18.4544 84.9768C17.0646 84.9768 15.8987 85.4262 14.9566 86.3232C14.0126 87.2202 13.5416 88.4006 13.5416 89.8607C13.5416 91.3209 14 92.494 14.9169 93.3784C15.8337 94.2628 16.9437 94.705 18.2486 94.705C19.5535 94.705 20.6437 94.4234 21.5208 93.8603V90.0863Z" fill="#836ADF"/>
<path d="M28.4551 96.7681V83.0295H30.7743V94.5662H37.0444V96.7681H28.4551Z" fill="#836ADF"/>
<path d="M52.2583 94.871C50.8685 96.2265 49.1521 96.9051 47.109 96.9051C45.0659 96.9051 43.3477 96.2265 41.9598 94.871C40.57 93.5156 39.877 91.8244 39.877 89.8012C39.877 87.7779 40.5718 86.0868 41.9598 84.7313C43.3477 83.3759 45.0659 82.6973 47.109 82.6973C49.1521 82.6973 50.8685 83.3759 52.2583 84.7313C53.6462 86.0868 54.3411 87.7779 54.3411 89.8012C54.3411 91.8244 53.6462 93.5156 52.2583 94.871ZM50.5581 86.2727C49.6214 85.3035 48.4717 84.818 47.109 84.818C45.7464 84.818 44.5967 85.3035 43.6599 86.2727C42.7232 87.2419 42.254 88.4187 42.254 89.8012C42.254 91.1837 42.7214 92.3605 43.6599 93.3297C44.5967 94.2989 45.7464 94.7844 47.109 94.7844C48.4717 94.7844 49.6214 94.3007 50.5581 93.3297C51.4948 92.3605 51.9641 91.1837 51.9641 89.8012C51.9641 88.4187 51.4948 87.2437 50.5581 86.2727Z" fill="#836ADF"/>
<path d="M64.8556 96.7681H58.8418V83.0295H64.1878C65.1173 83.0295 65.9204 83.1414 66.5955 83.3634C67.2705 83.5854 67.7704 83.8887 68.0989 84.2677C68.727 84.9752 69.0428 85.7747 69.0428 86.6645C69.0428 87.7384 68.7017 88.538 68.0213 89.0632C67.7722 89.2473 67.6026 89.361 67.5105 89.4061C67.4185 89.4512 67.2542 89.527 67.0196 89.6317C67.8715 89.8158 68.5483 90.1984 69.0537 90.7814C69.5572 91.3644 69.8099 92.0881 69.8099 92.9526C69.8099 93.9092 69.4814 94.7539 68.8263 95.4885C68.0538 96.3404 66.729 96.7663 64.8556 96.7663V96.7681ZM61.161 88.7293H64.1084C65.7851 88.7293 66.6243 88.1589 66.6243 87.0201C66.6243 86.3649 66.4204 85.8939 66.0143 85.6051C65.6082 85.3163 64.9783 85.1719 64.1282 85.1719H61.161V88.7293ZM61.161 94.6258H64.7978C65.6497 94.6258 66.3013 94.4922 66.7525 94.2233C67.2037 93.9544 67.4311 93.4472 67.4311 92.7C67.4311 91.4817 66.4547 90.8717 64.5018 90.8717H61.161V94.6258Z" fill="#836ADF"/>
<path d="M76.0762 93.6439L74.7009 96.7681H72.2246L78.2781 83.0295H80.7544L86.8079 96.7681H84.3316L82.9563 93.6439H76.078H76.0762ZM82.0124 91.5015L79.5162 85.8415L77.0201 91.5015H82.0124Z" fill="#836ADF"/>
<path d="M90.2852 96.7681V83.0295H92.6044V94.5662H98.8745V96.7681H90.2852Z" fill="#836ADF"/>
<defs>
<linearGradient id="paint0_linear_1301_1971" x1="93.3535" y1="16.8896" x2="93.3535" y2="57.4429" gradientUnits="userSpaceOnUse">
<stop stop-color="#4C2BBF"/>
<stop offset="1" stop-color="#836ADF"/>
</linearGradient>
<linearGradient id="paint1_linear_1301_1971" x1="10.2852" y1="50.6914" x2="50.6129" y2="50.6914" gradientUnits="userSpaceOnUse">
<stop stop-color="#4C2BBF"/>
<stop offset="1" stop-color="#836ADF"/>
</linearGradient>
<linearGradient id="paint2_linear_1301_1971" x1="48.4333" y1="34.2128" x2="49.1841" y2="69.2343" gradientUnits="userSpaceOnUse">
<stop stop-color="#4C2BBF"/>
<stop offset="1" stop-color="#836ADF"/>
</linearGradient>
<linearGradient id="paint3_linear_1301_1971" x1="93.3524" y1="16.8898" x2="93.3524" y2="57.4432" gradientUnits="userSpaceOnUse">
<stop stop-color="#4C2BBF"/>
<stop offset="1" stop-color="#836ADF"/>
</linearGradient>
<linearGradient id="paint4_linear_1301_1971" x1="49.6191" y1="28.5615" x2="51.5431" y2="28.5615" gradientUnits="userSpaceOnUse">
<stop stop-color="#9628E5"/>
<stop offset="1" stop-color="#636AC0"/>
</linearGradient>
<linearGradient id="paint5_linear_1301_1971" x1="20.4618" y1="25.4844" x2="39.8676" y2="25.4844" gradientUnits="userSpaceOnUse">
<stop stop-color="#4C2BBF"/>
<stop offset="1" stop-color="#836ADF"/>
</linearGradient>
<linearGradient id="paint6_linear_1301_1971" x1="20.8954" y1="65.5119" x2="37.7277" y2="72.3046" gradientUnits="userSpaceOnUse">
<stop stop-color="#836ADF"/>
<stop offset="1" stop-color="#4C2BBF"/>
</linearGradient>
<linearGradient id="paint7_linear_1301_1971" x1="93.3535" y1="30.7529" x2="93.3535" y2="73.4198" gradientUnits="userSpaceOnUse">
<stop stop-color="#836ADF"/>
<stop offset="1" stop-color="#4C2BBF"/>
</linearGradient>
</defs>
</svg>
